<svg width="157" height="32" viewBox="0 0 157 32" fill="none" xmlns="http://www.w3.org/2000/svg">
<path d="M61.6938 22.4695V6.47918C61.6938 3.08027 64.4587 0.318649 67.8542 0.318649H84.1913L81.8824 4.92456H67.8833C67.0296 4.92456 66.3117 5.63911 66.3117 6.47918V9.64635H80.2913L77.9824 14.2523H66.2826V22.4695H61.6938Z" fill="#231F20"/>
<path d="M88.8287 0.318649H84.2012V22.4695H88.8287V0.318649Z" fill="#231F20"/>
<path d="M108.212 19.4858L95.0567 9.38564V22.4985H90.4292V0L94.9015 3.41823L108.057 13.5184V0.308992L112.684 0.347616V22.904L108.212 19.4858Z" fill="#231F20"/>
<path d="M124.995 22.4695C118.864 22.4695 113.868 17.4967 113.868 11.3941C113.868 5.29149 118.854 0.318649 124.995 0.318649H136.375L134.066 4.92456H125.005C121.415 4.92456 118.505 7.83102 118.505 11.3941C118.505 14.9572 121.425 17.8636 125.005 17.8636H131.097L128.779 22.4695H125.005H124.995Z" fill="#231F20"/>
<path d="M145.873 22.4695C139.732 22.4695 134.745 17.4967 134.745 11.3941C134.745 5.29149 139.741 0.318649 145.873 0.318649C152.004 0.318649 157 5.29149 157 11.3941C157 17.4967 152.004 22.4695 145.873 22.4695ZM145.873 4.91491C142.283 4.91491 139.373 7.82136 139.373 11.3844C139.373 14.9475 142.293 17.854 145.873 17.854C149.452 17.854 152.372 14.9475 152.372 11.3844C152.372 7.82136 149.452 4.91491 145.873 4.91491Z" fill="#231F20"/>
<path d="M72.6565 27.9059C72.9087 27.761 73.2191 27.6838 73.5975 27.6838C74.0147 27.6838 74.3542 27.7707 74.6161 27.9541C74.8781 28.1376 75.0624 28.379 75.1691 28.6976L76.1101 28.4659C75.9355 27.9928 75.6348 27.6065 75.2079 27.3265C74.7811 27.0465 74.2378 26.9016 73.5975 26.9016C73.0348 26.9016 72.5594 27.0079 72.1617 27.2203C71.7639 27.4327 71.4535 27.7321 71.2401 28.1183C71.0266 28.5045 70.9199 28.9391 70.9199 29.4508C70.9199 29.9626 71.0266 30.3971 71.2401 30.7833C71.4535 31.1696 71.7639 31.4593 72.1617 31.6814C72.5594 31.8938 73.0445 32 73.5975 32C74.2378 32 74.7811 31.8552 75.2079 31.5751C75.6348 31.2951 75.9355 30.9185 76.1101 30.4357L75.1691 30.204C75.0624 30.5226 74.8781 30.7737 74.6161 30.9475C74.3542 31.131 74.0147 31.2179 73.5975 31.2179C73.2191 31.2179 72.9087 31.1406 72.6565 30.9958C72.4042 30.8509 72.2199 30.6385 72.0938 30.3778C71.9677 30.1074 71.9095 29.7984 71.9095 29.4412C71.9095 29.0839 71.9774 28.7749 72.1035 28.5045C72.2296 28.2342 72.4139 28.0314 72.6662 27.8865L72.6565 27.9059Z" fill="#6650FF"/>
<path d="M85.9571 27.0175L84.1914 31.9034H85.1615L86.6361 27.8093L88.1302 31.9034H89.0906L87.3346 27.0175H85.9571Z" fill="#6650FF"/>
<path d="M101.12 27.3265C100.907 27.1816 100.645 27.0851 100.315 27.0465C100.247 27.0368 100.16 27.0272 100.082 27.0272C99.9951 27.0272 99.9272 27.0272 99.869 27.0272H97.5601V31.9131H98.5011V30.204H99.8787C99.9272 30.204 99.9951 30.204 100.082 30.204C100.17 30.204 100.247 30.1943 100.325 30.1847C100.645 30.146 100.917 30.0495 101.12 29.9046C101.334 29.7598 101.489 29.5763 101.596 29.3542C101.703 29.1322 101.751 28.8908 101.751 28.6204C101.751 28.35 101.703 28.1086 101.596 27.8865C101.489 27.6644 101.334 27.481 101.13 27.3361L101.12 27.3265ZM100.752 28.9294C100.713 29.0356 100.655 29.1322 100.558 29.2191C100.47 29.306 100.344 29.3639 100.189 29.4025C100.131 29.4122 100.073 29.4218 100.014 29.4315C99.9466 29.4315 99.8884 29.4315 99.8399 29.4315H98.5011V27.7803H99.8399C99.8884 27.7803 99.9466 27.7803 100.014 27.7803C100.082 27.7803 100.141 27.79 100.189 27.8093C100.344 27.8479 100.47 27.9058 100.558 27.9928C100.645 28.0797 100.713 28.1762 100.752 28.2824C100.791 28.3887 100.81 28.4949 100.81 28.6011C100.81 28.7073 100.791 28.8135 100.752 28.9197V28.9294Z" fill="#6650FF"/>
<path d="M111.317 27.0175H110.375V31.9034H111.317V27.0175Z" fill="#6650FF"/>
<path d="M119.776 27.7803H121.59V31.9034H122.531V27.7803H124.336V27.0175H119.776V27.7803Z" fill="#6650FF"/>
<path d="M133.95 27.0175L132.184 31.9034H133.154L134.629 27.8093L136.123 31.9034H137.083L135.318 27.0175H133.95Z" fill="#6650FF"/>
<path d="M146.571 31.131V27.0175H145.63V31.9034H149.045V31.131H146.571Z" fill="#6650FF"/>
<path d="M37.1982 13.7019C37.1982 13.7019 37.2661 13.7405 37.3049 13.7695C38.8862 12.6107 40.4288 11.8769 41.9131 11.8769C46.1331 11.8769 46.8025 14.0302 46.8122 14.0688C47.5883 13.306 48.1219 12.2824 48.1219 10.9885C48.1219 7.82137 43.8727 6.06397 43.8727 6.06397C34.4721 6.344 29.9901 15.9614 21.8992 19.312C13.8277 22.6626 10.7329 16.2897 10.7232 16.2704C10.6844 17.6608 10.927 19.1768 11.509 20.7604C15.4866 30.0205 22.5686 27.2686 22.5686 27.2686C27.167 25.0573 32.3184 17.487 37.1982 13.8564V13.7212V13.7019Z" fill="url(#paint0_linear_2166_1524)"/>
<path d="M22.5684 27.2589C22.5684 27.2589 15.4767 30.0109 11.5089 20.7508C8.39472 12.35 14.8655 5.88051 23.0535 9.66566C31.2511 13.4508 36.0921 22.3343 45.4927 21.2625C54.8933 20.2004 53.7582 6.05432 43.8628 6.05432C43.8628 6.05432 48.112 7.81171 48.112 10.9789C48.112 14.146 44.9688 15.691 42.8539 15.691C40.739 15.691 37.1786 14.7254 31.6877 9.01871C26.1967 3.30235 21.5303 0 16.0006 0C9.685 0 0.216485 4.38383 0.00305541 14.146C-0.210374 23.9083 10.791 33.5546 22.5684 27.2589Z" fill="url(#paint1_linear_2166_1524)"/>
<defs>
<linearGradient id="paint0_linear_2166_1524" x1="17.65" y1="21.3687" x2="45.2351" y2="10.4951" gradientUnits="userSpaceOnUse">
<stop stopColor="#00D7A0"/>
<stop offset="1" stopColor="#23C8CE"/>
</linearGradient>
<linearGradient id="paint1_linear_2166_1524" x1="0" y1="14.634" x2="51.9508" y2="14.634" gradientUnits="userSpaceOnUse">
<stop stopColor="#BCA9FF"/>
<stop offset="1" stopColor="#543DFF"/>
</linearGradient>
</defs>
</svg>
