<svg width="197" height="27" viewBox="0 0 197 27" fill="none" xmlns="http://www.w3.org/2000/svg">
<path id="Path 26" d="M33.365 26.798H60.296L60.27 21.018H39.147V16.566H56.965V10.812H39.147V6.54503H60.298V0.791023H33.365V26.803V26.798ZM197.001 0.786026H190.147L181.516 15.169L173.985 2.62003L172.885 0.786026H166.031L167.131 2.62003L176.988 19.045L178.088 20.879L174.535 26.798H181.389L186.047 19.045L187.852 16.037L197.005 0.784027L197.001 0.786026ZM128.153 26.798H133.933V0.786026H128.153V26.798ZM147.921 6.54503V26.803H153.675V6.54503H163.805V0.791023H137.793V6.54503H147.921ZM98.178 13.784C98.1793 17.2365 99.5514 20.5471 101.993 22.9884C104.434 25.4296 107.745 26.8017 111.197 26.803H124.297V21.023H111.197C110.239 21.0343 109.289 20.8554 108.401 20.4966C107.513 20.1379 106.705 19.6065 106.023 18.9333C105.342 18.26 104.801 17.4582 104.432 16.5744C104.063 15.6906 103.873 14.7423 103.873 13.7845C103.873 12.8267 104.063 11.8785 104.432 10.9946C104.801 10.1108 105.342 9.30906 106.023 8.63579C106.705 7.96251 107.513 7.43112 108.401 7.0724C109.289 6.71368 110.239 6.53477 111.197 6.54603H124.297V0.792023H111.197C109.489 0.789526 107.797 1.12371 106.218 1.77547C104.639 2.42722 103.204 3.38377 101.995 4.59044C100.786 5.79711 99.8263 7.23024 99.1714 8.8079C98.5165 10.3856 98.1789 12.0758 98.178 13.784ZM0.657013 0.786026H11.31L14.899 7.42003L23.753 23.994V0.786026H29.507V26.798H18.807L6.40701 3.59103V26.798H0.652985V0.786026H0.657013ZM61.428 14.326C61.568 17.679 62.9978 20.8484 65.4189 23.1723C67.8399 25.4963 71.0651 26.7953 74.421 26.798H82.596C85.956 26.8005 89.1869 25.504 91.6132 23.1797C94.0395 20.8553 95.4734 17.683 95.615 14.326V13.753C95.5939 10.3953 94.2899 7.17261 91.97 4.74503C90.7587 3.4826 89.3027 2.48049 87.6909 1.79995C86.0791 1.11941 84.3455 0.774747 82.596 0.787025H74.421C70.9934 0.796721 67.7071 2.15383 65.2713 4.56543C62.8356 6.97703 61.4458 10.2497 61.402 13.677V14.016C61.3977 14.1207 61.4064 14.2255 61.428 14.328V14.326ZM67.182 13.779C67.1894 11.8574 67.9582 10.017 69.3199 8.66105C70.6816 7.30512 72.5253 6.54422 74.447 6.54503H82.598C83.5557 6.53377 84.5062 6.71268 85.3943 7.0714C86.2823 7.43012 87.0904 7.96151 87.7716 8.63479C88.4529 9.30806 88.9938 10.1098 89.3629 10.9936C89.732 11.8774 89.9221 12.8257 89.9221 13.7835C89.9221 14.7413 89.732 15.6896 89.3629 16.5734C88.9938 17.4572 88.4529 18.259 87.7716 18.9323C87.0904 19.6055 86.2823 20.1369 85.3943 20.4957C84.5062 20.8544 83.5557 21.0333 82.598 21.022H74.447C73.4935 21.0268 72.5484 20.8428 71.6663 20.4808C70.7841 20.1187 69.9824 19.5858 69.3071 18.9125C68.6318 18.2393 68.0964 17.4391 67.7317 16.5581C67.3669 15.6771 67.1801 14.7326 67.182 13.779Z" fill="white"/>
</svg>
